<svg width="304" height="59" viewBox="0 0 304 59" fill="none" xmlns="http://www.w3.org/2000/svg">
<path d="M15.1233 47.48C12.5313 47.48 10.0193 47.112 7.58731 46.376C5.18731 45.64 3.28331 44.664 1.87531 43.448L4.03531 38.6C5.41131 39.688 7.09131 40.584 9.07531 41.288C11.0913 41.96 13.1073 42.296 15.1233 42.296C17.6193 42.296 19.4753 41.896 20.6913 41.096C21.9393 40.296 22.5633 39.24 22.5633 37.928C22.5633 36.968 22.2113 36.184 21.5073 35.576C20.8353 34.936 19.9713 34.44 18.9153 34.088C17.8593 33.736 16.4193 33.336 14.5953 32.888C12.0353 32.28 9.95531 31.672 8.35531 31.064C6.78731 30.456 5.42731 29.512 4.27531 28.232C3.15531 26.92 2.59531 25.16 2.59531 22.952C2.59531 21.096 3.09131 19.416 4.08331 17.912C5.10731 16.376 6.62731 15.16 8.64331 14.264C10.6913 13.368 13.1873 12.92 16.1313 12.92C18.1793 12.92 20.1953 13.176 22.1793 13.688C24.1633 14.2 25.8753 14.936 27.3153 15.896L25.3473 20.744C23.8753 19.88 22.3393 19.224 20.7393 18.776C19.1393 18.328 17.5873 18.104 16.0833 18.104C13.6193 18.104 11.7793 18.52 10.5633 19.352C9.37931 20.184 8.78731 21.288 8.78731 22.664C8.78731 23.624 9.12331 24.408 9.79531 25.016C10.4993 25.624 11.3793 26.104 12.4353 26.456C13.4913 26.808 14.9313 27.208 16.7553 27.656C19.2513 28.232 21.2993 28.84 22.8993 29.48C24.4993 30.088 25.8593 31.032 26.9793 32.312C28.1313 33.592 28.7073 35.32 28.7073 37.496C28.7073 39.352 28.1953 41.032 27.1713 42.536C26.1793 44.04 24.6593 45.24 22.6113 46.136C20.5633 47.032 18.0673 47.48 15.1233 47.48ZM34.3188 21.368H40.3188V47H34.3188V21.368ZM37.3428 17.144C36.2548 17.144 35.3428 16.808 34.6068 16.136C33.8708 15.432 33.5028 14.568 33.5028 13.544C33.5028 12.52 33.8708 11.672 34.6068 11C35.3428 10.296 36.2548 9.944 37.3428 9.944C38.4308 9.944 39.3428 10.28 40.0788 10.952C40.8148 11.592 41.1828 12.408 41.1828 13.4C41.1828 14.456 40.8148 15.352 40.0788 16.088C39.3748 16.792 38.4628 17.144 37.3428 17.144ZM62.7378 21.08C65.9698 21.08 68.5618 22.024 70.5138 23.912C72.4658 25.8 73.4418 28.6 73.4418 32.312V47H67.4418V33.08C67.4418 30.84 66.9138 29.16 65.8578 28.04C64.8018 26.888 63.2978 26.312 61.3458 26.312C59.1378 26.312 57.3938 26.984 56.1138 28.328C54.8338 29.64 54.1938 31.544 54.1938 34.04V47H48.1938V21.368H53.9058V24.68C54.8978 23.496 56.1458 22.6 57.6498 21.992C59.1538 21.384 60.8498 21.08 62.7378 21.08ZM106.728 21.368V43.112C106.728 52.136 102.12 56.648 92.9036 56.648C90.4396 56.648 88.1036 56.328 85.8956 55.688C83.6876 55.08 81.8636 54.184 80.4236 53L83.1116 48.488C84.2316 49.416 85.6396 50.152 87.3356 50.696C89.0636 51.272 90.8076 51.56 92.5676 51.56C95.3836 51.56 97.4476 50.92 98.7596 49.64C100.072 48.36 100.728 46.408 100.728 43.784V42.44C99.7036 43.56 98.4556 44.408 96.9836 44.984C95.5116 45.56 93.8956 45.848 92.1356 45.848C89.7036 45.848 87.4956 45.336 85.5116 44.312C83.5596 43.256 82.0076 41.784 80.8556 39.896C79.7356 38.008 79.1756 35.848 79.1756 33.416C79.1756 30.984 79.7356 28.84 80.8556 26.984C82.0076 25.096 83.5596 23.64 85.5116 22.616C87.4956 21.592 89.7036 21.08 92.1356 21.08C93.9916 21.08 95.6716 21.384 97.1756 21.992C98.7116 22.6 99.9916 23.528 101.016 24.776V21.368H106.728ZM93.0476 40.76C95.3196 40.76 97.1756 40.088 98.6156 38.744C100.088 37.368 100.824 35.592 100.824 33.416C100.824 31.272 100.088 29.528 98.6156 28.184C97.1756 26.84 95.3196 26.168 93.0476 26.168C90.7436 26.168 88.8556 26.84 87.3836 28.184C85.9436 29.528 85.2236 31.272 85.2236 33.416C85.2236 35.592 85.9436 37.368 87.3836 38.744C88.8556 40.088 90.7436 40.76 93.0476 40.76ZM139.432 21.368V47H133.72V43.736C132.76 44.888 131.56 45.784 130.12 46.424C128.68 47.032 127.128 47.336 125.464 47.336C122.04 47.336 119.336 46.392 117.352 44.504C115.4 42.584 114.424 39.752 114.424 36.008V21.368H120.424V35.192C120.424 37.496 120.936 39.224 121.96 40.376C123.016 41.496 124.504 42.056 126.424 42.056C128.568 42.056 130.264 41.4 131.512 40.088C132.792 38.744 133.432 36.824 133.432 34.328V21.368H139.432ZM147.288 11.384H153.288V47H147.288V11.384ZM170.955 21.08C174.731 21.08 177.611 21.992 179.595 23.816C181.611 25.608 182.619 28.328 182.619 31.976V47H176.955V43.88C176.219 45 175.163 45.864 173.787 46.472C172.443 47.048 170.811 47.336 168.891 47.336C166.971 47.336 165.291 47.016 163.851 46.376C162.411 45.704 161.291 44.792 160.491 43.64C159.723 42.456 159.339 41.128 159.339 39.656C159.339 37.352 160.187 35.512 161.883 34.136C163.611 32.728 166.315 32.024 169.995 32.024H176.619V31.64C176.619 29.848 176.075 28.472 174.987 27.512C173.931 26.552 172.347 26.072 170.235 26.072C168.795 26.072 167.371 26.296 165.963 26.744C164.587 27.192 163.419 27.816 162.459 28.616L160.107 24.248C161.451 23.224 163.067 22.44 164.955 21.896C166.843 21.352 168.843 21.08 170.955 21.08ZM170.139 42.968C171.643 42.968 172.971 42.632 174.123 41.96C175.307 41.256 176.139 40.264 176.619 38.984V36.008H170.427C166.971 36.008 165.243 37.144 165.243 39.416C165.243 40.504 165.675 41.368 166.539 42.008C167.403 42.648 168.603 42.968 170.139 42.968ZM196.031 25.112C197.759 22.424 200.799 21.08 205.151 21.08V26.792C204.639 26.696 204.175 26.648 203.759 26.648C201.423 26.648 199.599 27.336 198.287 28.712C196.975 30.056 196.319 32.008 196.319 34.568V47H190.319V21.368H196.031V25.112ZM210.241 21.368H216.241V47H210.241V21.368ZM213.265 17.144C212.177 17.144 211.265 16.808 210.529 16.136C209.793 15.432 209.425 14.568 209.425 13.544C209.425 12.52 209.793 11.672 210.529 11C211.265 10.296 212.177 9.944 213.265 9.944C214.353 9.944 215.265 10.28 216.001 10.952C216.737 11.592 217.105 12.408 217.105 13.4C217.105 14.456 216.737 15.352 216.001 16.088C215.297 16.792 214.385 17.144 213.265 17.144ZM239.524 45.608C238.82 46.184 237.956 46.616 236.932 46.904C235.94 47.192 234.884 47.336 233.764 47.336C230.948 47.336 228.772 46.6 227.236 45.128C225.7 43.656 224.932 41.512 224.932 38.696V26.36H220.708V21.56H224.932V15.704H230.932V21.56H237.796V26.36H230.932V38.552C230.932 39.8 231.236 40.76 231.844 41.432C232.452 42.072 233.332 42.392 234.484 42.392C235.828 42.392 236.948 42.04 237.844 41.336L239.524 45.608ZM267.991 21.368L255.991 49.064C254.871 51.848 253.511 53.8 251.911 54.92C250.311 56.072 248.375 56.648 246.103 56.648C244.823 56.648 243.559 56.44 242.311 56.024C241.063 55.608 240.039 55.032 239.239 54.296L241.639 49.88C242.215 50.424 242.887 50.856 243.655 51.176C244.455 51.496 245.255 51.656 246.055 51.656C247.111 51.656 247.975 51.384 248.647 50.84C249.351 50.296 249.991 49.384 250.567 48.104L250.999 47.096L239.815 21.368H246.055L254.119 40.328L262.231 21.368H267.991Z" fill="#19A9FA"/>
<path d="M285.042 6.5H277.292C276.949 6.5 276.621 6.60975 276.378 6.8051C276.136 7.00045 276 7.2654 276 7.54167C276 7.81793 276.136 8.08289 276.378 8.27824C276.621 8.47359 276.949 8.58333 277.292 8.58333H279.875V15.875C279.875 16.1513 280.011 16.4162 280.253 16.6116C280.496 16.8069 280.824 16.9167 281.167 16.9167C281.509 16.9167 281.838 16.8069 282.08 16.6116C282.322 16.4162 282.458 16.1513 282.458 15.875V8.58333H285.042C285.384 8.58333 285.713 8.47359 285.955 8.27824C286.197 8.08289 286.333 7.81793 286.333 7.54167C286.333 7.2654 286.197 7.00045 285.955 6.8051C285.713 6.60975 285.384 6.5 285.042 6.5ZM300.438 7.14583C300.307 6.8913 300.056 6.68904 299.741 6.58333C299.426 6.47915 299.074 6.47915 298.759 6.58333C298.601 6.63291 298.456 6.70725 298.333 6.80208L294.729 9.71875L291.125 6.80208C291.003 6.70725 290.858 6.63291 290.699 6.58333C290.385 6.47915 290.032 6.47915 289.717 6.58333C289.402 6.68904 289.151 6.8913 289.02 7.14583C288.954 7.27106 288.919 7.40554 288.917 7.54167V15.875C288.917 16.1513 289.053 16.4162 289.295 16.6116C289.537 16.8069 289.866 16.9167 290.208 16.9167C290.551 16.9167 290.879 16.8069 291.122 16.6116C291.364 16.4162 291.5 16.1513 291.5 15.875V10.0521L293.812 11.9271C293.932 12.0247 294.075 12.1022 294.232 12.1551C294.39 12.208 294.559 12.2352 294.729 12.2352C294.9 12.2352 295.069 12.208 295.226 12.1551C295.383 12.1022 295.526 12.0247 295.646 11.9271L297.958 10.0521V15.875C297.958 16.1513 298.094 16.4162 298.337 16.6116C298.579 16.8069 298.907 16.9167 299.25 16.9167C299.593 16.9167 299.921 16.8069 300.163 16.6116C300.406 16.4162 300.542 16.1513 300.542 15.875V7.54167C300.54 7.40554 300.505 7.27106 300.438 7.14583Z" fill="#19A9FA"/>
</svg>
